<svg xmlns="http://www.w3.org/2000/svg" viewBox="0 0 64 64" width="64" height="64" role="img" aria-label="CursorBuddy">
  <title>CursorBuddy</title>
  <rect x="0" y="0" width="64" height="64" rx="9" fill="none" stroke="#0e0e10" stroke-width="3"/>
  <line x1="0" y1="13" x2="64" y2="13" stroke="#0e0e10" stroke-width="2.5"/>
  <circle cx="7" cy="6.5" r="2" fill="#2563eb"/>
  <path d="M 22 26 Q 46 20 49 44" fill="none" stroke="#2563eb" stroke-width="1.5" stroke-linecap="round"/>
  <circle cx="49" cy="44" r="2.5" fill="#2563eb"/>
  <path
    d="M 30 30 Q 29 29 30.5 29.5 L 41 34.5 Q 42 35 41 35.7 L 37 37 Q 36 37.4 36.3 38.5 L 38 42.5 Q 38.4 43.5 37.4 43.8 L 35.5 44.2 Q 34.5 44.5 34.2 43.5 L 32.5 39.5 Q 32.2 38.5 31.2 38.8 L 28.5 39.7 Q 27.5 40 27.8 38.8 L 30 30.5 Q 30 30 30 30 Z"
    fill="#0e0e10"
  />
</svg>
